PathFileType  4	(X/Y/Z) C:\Users\antoi\Documents\MyRepositories\mobilecap\ResultsAnalysis
DataRate	CameraRate	NumFrames	NumMarkers	Units	OrigDataRate	OrigDataStartFrame	OrigNumFrames
100.0	100.0	6	51	mm	100.0	660	1318
Frame#	Time	r_knee			r_shank_antsup			r_ankle			r_calc			r_5meta			r_toe			L_knee			L_shank_antsup			L_ankle			L_calc			L_5meta			L_toe			r_sh2			r_sh3			r_sh4			L_sh2			L_sh3			r_thigh1			r_thigh2			r_thigh3			r_thigh4			r_thigh5			L_thigh1			L_thigh2			L_thigh3			L_thigh4			r.ASIS			r.PSIS			L.ASIS			L.PSIS			C7			R_Shoulder			L_Shoulder			R_Sternum			L_Sternum			R_humerus			R_elbow_med			R_elbow_lat			R_forearm			R_wrist_radius			R_wrist_ulna			L_humerus			L_elbow_med			L_elbow_lat			L_forearm			L_wrist_radius			L_wrist_ulna			R_HJC			L_HJC			R_HJC_reg			L_HJC_reg			
		X1	Y1	Z1	X2	Y2	Z2	X3	Y3	Z3	X4	Y4	Z4	X5	Y5	Z5	X6	Y6	Z6	X7	Y7	Z7	X8	Y8	Z8	X9	Y9	Z9	X10	Y10	Z10	X11	Y11	Z11	X12	Y12	Z12	X13	Y13	Z13	X14	Y14	Z14	X15	Y15	Z15	X16	Y16	Z16	X17	Y17	Z17	X18	Y18	Z18	X19	Y19	Z19	X20	Y20	Z20	X21	Y21	Z21	X22	Y22	Z22	X23	Y23	Z23	X24	Y24	Z24	X25	Y25	Z25	X26	Y26	Z26	X27	Y27	Z27	X28	Y28	Z28	X29	Y29	Z29	X30	Y30	Z30	X31	Y31	Z31	X32	Y32	Z32	X33	Y33	Z33	X34	Y34	Z34	X35	Y35	Z35	X36	Y36	Z36	X37	Y37	Z37	X38	Y38	Z38	X39	Y39	Z39	X40	Y40	Z40	X41	Y41	Z41	X42	Y42	Z42	X43	Y43	Z43	X44	Y44	Z44	X45	Y45	Z45	X46	Y46	Z46	X47	Y47	Z47	X48	Y48	Z48	X49	Y49	Z49	X50	Y50	Z50	X51	Y51	Z51	

660	6.59000000	-70.73274	434.76190	-372.99242	-34.85188	353.52302	-393.15158	-253.65148	97.04911	-421.78181	-331.94233	67.84862	-457.39410	-163.02786	44.51717	-380.54018	-111.97094	65.69916	-436.29124	-160.97136	464.11333	-931.49778	-131.58856	379.25514	-982.48689	-282.84822	103.55324	-1004.75965	-342.39770	63.48881	-954.54877	-191.77935	42.62064	-1068.19465	-141.48020	69.55682	-1024.51742	-107.13387	263.30542	-381.27082	-94.92735	398.72201	-358.81946	-165.54751	308.08419	-365.20961	-207.44725	412.37658	-947.15968	-255.59152	303.80119	-978.77561	-297.58969	656.71985	-376.04938	-209.29801	590.59479	-372.62163	-220.86870	532.57428	-343.10891	-362.99020	567.57087	-350.04060	-265.43338	500.73486	-351.40143	-354.42804	622.22489	-819.16822	-243.95713	565.45556	-875.55553	-396.78913	517.93860	-790.85915	-285.00527	467.08094	-862.36482	-282.93321	663.06314	-451.28911	-427.53808	780.55409	-523.85809	-294.24552	630.88263	-686.93174	-429.37220	777.79507	-616.72681	-75.46544	991.22337	-611.05379	28.49775	941.21658	-491.02725	-9.09885	948.00402	-753.14621	9.96905	865.69154	-594.54518	8.39930	864.14826	-642.07587	85.70035	885.13443	-404.16182	167.35138	680.66968	-375.48221	196.94090	743.19214	-326.95636	214.65519	815.83341	-443.46241	224.55277	869.69139	-556.14409	260.43180	870.58122	-558.51772	27.08359	910.73478	-843.91991	117.79295	702.87794	-919.50324	121.44021	780.29686	-963.78730	153.32537	829.50437	-874.66213	216.29394	883.33184	-752.64671	245.67581	887.14306	-768.25706	-386.13841	627.98888	-457.25550	-398.02675	610.24917	-662.61926	-382.69992	622.34998	-480.59293	-385.80167	617.68433	-637.63820	
661	6.60000000	-70.80336	435.46768	-374.41830	-35.03375	354.40121	-394.03634	-253.63390	97.45264	-421.52776	-331.94392	67.93866	-457.46799	-162.98492	44.54216	-380.59198	-112.00991	65.49713	-436.52416	-160.55138	464.17463	-932.27137	-131.43444	379.31091	-983.21293	-282.85313	103.61021	-1005.11361	-342.38784	63.53076	-954.63713	-191.71206	42.60918	-1068.50654	-141.44805	69.40168	-1024.61000	-107.37825	264.30160	-381.80327	-95.21422	399.35416	-360.21160	-165.86780	308.84084	-365.81655	-207.32607	412.34278	-947.70604	-255.45409	303.91756	-979.56667	-296.23440	659.25783	-377.40469	-208.01809	592.74855	-373.46183	-220.28947	534.30090	-345.09372	-362.11143	570.59521	-351.45899	-264.99473	503.02068	-353.08566	-352.74126	624.32076	-820.76666	-242.83981	566.48252	-876.96876	-395.88917	520.29897	-791.56813	-284.50818	468.32368	-862.81428	-281.83441	666.72184	-452.56171	-426.88536	784.34481	-525.22115	-293.55408	634.71690	-688.54247	-428.78254	781.56903	-618.21929	-76.33221	997.12737	-612.11360	27.96833	947.32865	-491.81884	-9.72034	954.39648	-754.33685	9.94324	872.00632	-595.30998	8.37195	870.55535	-643.00857	84.78071	890.82447	-404.70503	165.98689	686.15391	-375.85530	195.35426	748.46236	-327.30172	213.35551	821.23980	-443.77081	223.37418	875.27933	-556.25456	259.16763	876.21699	-558.60820	26.47039	916.92047	-845.25069	116.24171	708.65106	-920.64804	120.62297	786.25809	-965.18077	152.70102	835.15177	-875.49607	215.59715	889.12598	-754.32836	245.14487	892.80765	-769.64127	-385.20880	631.70842	-458.68223	-397.28143	614.00436	-664.03806	-381.82941	625.99881	-481.85575	-385.03747	621.30423	-639.11642	
662	6.61000000	-70.94429	436.28222	-375.60441	-35.24912	355.34278	-394.68522	-253.66539	98.02811	-420.98099	-331.92126	68.04105	-457.51457	-162.96653	44.53493	-380.62459	-112.02541	65.42729	-436.64972	-160.24861	464.37861	-933.07375	-131.39264	379.35109	-983.80418	-282.89148	103.70506	-1005.57680	-342.34903	63.52809	-954.64281	-191.66747	42.55789	-1068.71768	-141.43927	69.27638	-1024.72202	-107.45807	264.96978	-382.52442	-95.63780	399.89383	-361.60795	-166.00157	309.47704	-366.40849	-207.33456	412.41496	-948.45456	-255.37253	303.92262	-980.16261	-294.71103	661.89595	-378.78626	-207.01563	595.22740	-374.36350	-220.09493	537.31020	-344.91514	-361.16632	573.81250	-352.97473	-264.68006	505.48033	-354.56885	-351.15255	626.80693	-822.65802	-241.75071	567.74879	-878.37943	-395.06094	522.88937	-792.27992	-284.12354	469.88547	-863.54381	-280.81651	670.61738	-453.56408	-426.18245	788.43526	-526.42407	-292.89315	638.48192	-689.96762	-428.10888	785.50574	-619.79254	-77.24285	1003.25975	-613.16724	27.46856	953.76311	-492.59447	-10.34798	961.01079	-755.52178	9.89501	878.58844	-596.23857	8.31507	877.17540	-644.16140	83.80774	896.66349	-405.34975	164.39026	691.53259	-376.22829	193.57702	753.96404	-327.51307	211.92084	826.72159	-443.96638	222.03361	880.82744	-556.33905	257.90271	881.68697	-558.57181	25.82422	923.26983	-846.53870	115.26192	714.50052	-922.29727	119.60734	792.32375	-966.64874	151.88323	840.59446	-875.67193	214.95727	894.88965	-755.75728	244.41614	898.78799	-771.42855	-384.39482	635.74955	-459.88087	-396.60130	617.84329	-665.21119	-381.10378	629.92400	-482.85647	-384.35434	624.98068	-640.40824	
663	6.62000000	-71.22148	437.11952	-376.69637	-35.64786	356.09609	-395.63351	-253.68501	98.41779	-420.60260	-331.84385	68.13577	-457.49057	-162.95353	44.51079	-380.65497	-111.98905	65.47941	-436.64897	-160.07789	464.79599	-933.99823	-131.51386	379.39274	-984.28305	-282.92761	103.75343	-1005.90192	-342.33791	63.54099	-954.65649	-191.66508	42.49957	-1068.81758	-141.45386	69.18104	-1024.83477	-107.61548	265.46276	-383.12711	-95.91982	401.06628	-362.13539	-166.13348	310.09054	-367.07295	-207.47851	412.62067	-949.32155	-255.44174	303.79274	-980.52765	-293.16940	664.94419	-379.90745	-206.09956	597.42963	-375.69531	-219.68007	540.66547	-344.31399	-360.24780	577.08963	-354.57575	-264.39580	508.09530	-355.88286	-349.45157	629.43650	-824.29302	-240.63174	569.19854	-879.76437	-394.22416	525.96566	-793.57130	-283.85252	471.74759	-864.62494	-279.96614	674.56090	-454.85182	-425.40528	792.67233	-527.55142	-292.18512	642.14894	-691.31377	-427.28871	789.52984	-621.48539	-78.16112	1009.60213	-614.31316	26.85389	960.50932	-493.30473	-11.03677	967.92979	-756.91001	9.78184	885.46995	-597.43701	8.12063	883.87251	-646.70418	82.77166	902.64987	-405.95006	162.39482	697.05089	-376.36532	191.53176	759.48850	-327.60519	210.27075	832.30603	-443.90621	220.68723	886.35991	-556.28671	256.58627	886.90639	-558.57826	25.15111	929.74789	-847.85701	114.47822	720.68949	-923.91224	118.36001	798.36604	-968.03569	150.88993	846.32702	-876.22424	214.30377	900.82573	-757.13157	243.49468	904.85109	-773.24973	-383.68008	639.88671	-461.13479	-395.97468	621.75243	-666.44007	-380.46957	634.04983	-484.14638	-383.63032	628.77822	-641.75703	
664	6.63000000	-71.61062	437.86227	-377.80643	-36.17065	356.77605	-396.70971	-253.75359	98.50719	-420.57078	-331.77965	68.17379	-457.44104	-162.92800	44.48918	-380.67905	-111.95297	65.52436	-436.62546	-160.04959	465.36667	-935.02245	-131.77759	379.52820	-984.87478	-282.93889	103.73553	-1006.07015	-342.34746	63.60355	-954.71489	-191.67555	42.47219	-1068.96406	-141.47247	69.10556	-1024.93572	-107.95892	265.95986	-383.44601	-96.47641	402.61008	-362.54711	-166.54308	310.90601	-367.57532	-207.75337	412.83742	-950.09898	-255.67888	303.73205	-980.88947	-291.89945	668.49697	-380.60638	-204.92509	599.20045	-377.53615	-219.02695	543.53420	-344.66672	-359.39630	580.43859	-356.03538	-264.02604	510.78352	-357.28020	-347.61030	632.09431	-825.56850	-239.48969	570.72620	-881.09322	-393.35584	529.50375	-795.35592	-283.66094	473.83117	-865.91691	-279.13836	678.71114	-456.78648	-424.53861	796.87943	-528.98898	-291.12766	646.24485	-692.87802	-426.33105	793.69323	-623.19710	-79.13021	1016.17790	-615.52919	26.10277	967.33329	-494.09394	-11.83115	975.14598	-758.47636	9.60269	892.64317	-598.76537	7.65452	890.54056	-649.38756	81.69527	908.74516	-406.57273	159.76943	703.27572	-375.58875	189.13193	764.94597	-327.50007	208.36738	837.89005	-443.62862	219.39612	891.88013	-556.04959	255.16992	891.98773	-558.51888	24.41378	936.37306	-849.34297	113.24019	726.85661	-924.74710	116.87826	804.25205	-969.28977	149.69989	852.54197	-877.90246	213.39385	907.04015	-758.61795	242.42912	910.84991	-774.96313	-382.77675	644.00926	-462.82669	-395.03077	625.93393	-668.13937	-379.56311	638.30368	-486.11107	-382.55741	632.98250	-643.47857	
665	6.64000000	-72.02177	438.56807	-378.81610	-36.69803	357.57249	-397.51857	-253.87178	98.55684	-420.69029	-331.77437	68.18127	-457.46052	-162.89576	44.50023	-380.65918	-111.94236	65.55290	-436.62612	-160.11895	465.97713	-936.03902	-132.12537	379.73180	-985.58580	-282.94582	103.65998	-1006.23633	-342.34988	63.66836	-954.77162	-191.68643	42.36702	-1069.05091	-141.47533	69.02177	-1024.98872	-108.38955	266.65507	-383.64027	-98.02911	403.04641	-364.49303	-167.02857	311.75960	-368.13424	-208.17537	413.00488	-950.79201	-255.99975	303.89853	-981.48706	-290.63648	671.86839	-381.60150	-203.77214	601.23096	-379.29309	-218.44126	545.82649	-346.00531	-358.56562	583.93609	-357.44276	-263.59517	513.56641	-358.74183	-345.78662	634.96408	-826.86335	-238.36940	572.35450	-882.42218	-392.51406	533.16339	-796.84851	-283.54729	476.03981	-867.14608	-278.47963	683.16335	-459.03845	-423.64202	801.12564	-530.70807	-289.98294	650.95064	-694.80282	-425.38614	798.15492	-624.80768	-80.15818	1023.02013	-616.74931	25.33355	974.14020	-494.96868	-12.62002	982.56406	-760.02008	9.41676	900.03738	-600.13910	7.34383	897.74494	-650.25546	80.54832	914.96551	-407.32273	156.58809	709.88803	-374.14891	186.36879	770.58070	-327.17486	206.27839	843.40849	-443.28255	218.01806	897.31958	-555.67571	253.72531	897.07060	-558.13875	23.58119	943.13457	-850.91437	111.83776	732.76859	-925.51683	115.22143	810.10387	-970.57906	148.31940	858.80724	-879.90521	212.25659	913.39168	-759.97401	241.26423	916.92256	-776.76023	-381.85587	648.21766	-464.89614	-393.96508	630.55506	-670.25297	-378.57875	642.65705	-488.42834	-381.49067	637.69746	-645.55651	
